<?xml version="1.0" encoding="UTF-8" standalone="no"?>
<!DOCTYPE svg PUBLIC "-//W3C//DTD SVG 1.1//EN"
 "http://www.w3.org/Graphics/SVG/1.1/DTD/svg11.dtd">
<!-- Generated by graphviz version 2.40.1 (0)
 -->
<!-- Title: AutoFitMechanismBipanel Pages: 1 -->
<svg width="465pt" height="318pt"
 viewBox="0.00 0.00 465.14 317.64" xmlns="http://www.w3.org/2000/svg" xmlns:xlink="http://www.w3.org/1999/xlink">
<g id="graph0" class="graph" transform="scale(1 1) rotate(0) translate(4.32 313.32)">
<title>AutoFitMechanismBipanel</title>
<polygon fill="#ffffff" stroke="transparent" points="-4.32,4.32 -4.32,-313.32 460.82,-313.32 460.82,4.32 -4.32,4.32"/>
<text text-anchor="middle" x="228.25" y="-295.4" font-family="Helvetica,sans-Serif" font-size="12.00" fill="#000000">Methodology Two&#45;Panel Figure: AutoFit v1 vs AutoFit v2/v2E</text>
<!-- a1 -->
<g id="node1" class="node">
<title>a1</title>
<path fill="#e9f8f6" stroke="#72b7b2" d="M189,-288C189,-288 12,-288 12,-288 6,-288 0,-282 0,-276 0,-276 0,-252 0,-252 0,-246 6,-240 12,-240 12,-240 189,-240 189,-240 195,-240 201,-246 201,-252 201,-252 201,-276 201,-276 201,-282 195,-288 189,-288"/>
<text text-anchor="middle" x="100.5" y="-273.6" font-family="Helvetica,sans-Serif" font-size="10.50" fill="#000000">(a) AutoFit v1</text>
<text text-anchor="middle" x="100.5" y="-261.6" font-family="Helvetica,sans-Serif" font-size="10.50" fill="#000000">rule diagnostics m_v1</text>
<text text-anchor="middle" x="100.5" y="-249.6" font-family="Helvetica,sans-Serif" font-size="10.50" fill="#000000">if/else thresholds &#45;&gt; (B,F,L,Omega)</text>
</g>
<!-- a2 -->
<g id="node3" class="node">
<title>a2</title>
<path fill="#e9f8f6" stroke="#72b7b2" d="M147,-194C147,-194 54,-194 54,-194 48,-194 42,-188 42,-182 42,-182 42,-170 42,-170 42,-164 48,-158 54,-158 54,-158 147,-158 147,-158 153,-158 159,-164 159,-170 159,-170 159,-182 159,-182 159,-188 153,-194 147,-194"/>
<text text-anchor="middle" x="100.5" y="-179.6" font-family="Helvetica,sans-Serif" font-size="10.50" fill="#000000">(a) Output policy</text>
<text text-anchor="middle" x="100.5" y="-167.6" font-family="Helvetica,sans-Serif" font-size="10.50" fill="#000000">single&#45;route model</text>
</g>
<!-- a1&#45;&gt;a2 -->
<g id="edge1" class="edge">
<title>a1&#45;&gt;a2</title>
<path fill="none" stroke="#4a4a4a" stroke-width="1.2" d="M100.5,-239.9536C100.5,-227.8722 100.5,-213.2445 100.5,-201.0294"/>
<polygon fill="#4a4a4a" stroke="#4a4a4a" stroke-width="1.2" points="102.8801,-200.9536 100.5,-194.1536 98.1201,-200.9536 102.8801,-200.9536"/>
</g>
<!-- b1 -->
<g id="node2" class="node">
<title>b1</title>
<path fill="#fff3e6" stroke="#f29e4c" d="M444.5,-288C444.5,-288 262.5,-288 262.5,-288 256.5,-288 250.5,-282 250.5,-276 250.5,-276 250.5,-252 250.5,-252 250.5,-246 256.5,-240 262.5,-240 262.5,-240 444.5,-240 444.5,-240 450.5,-240 456.5,-246 456.5,-252 456.5,-252 456.5,-276 456.5,-276 456.5,-282 450.5,-288 444.5,-288"/>
<text text-anchor="middle" x="353.5" y="-273.6" font-family="Helvetica,sans-Serif" font-size="10.50" fill="#000000">(b) AutoFit v2/v2E</text>
<text text-anchor="middle" x="353.5" y="-261.6" font-family="Helvetica,sans-Serif" font-size="10.50" fill="#000000">meta&#45;features m, expert scores s_k,</text>
<text text-anchor="middle" x="353.5" y="-249.6" font-family="Helvetica,sans-Serif" font-size="10.50" fill="#000000">softmax gate π_k (top&#45;1 or top&#45;K)</text>
</g>
<!-- b2 -->
<g id="node4" class="node">
<title>b2</title>
<path fill="#ffeacf" stroke="#f29e4c" d="M429,-200C429,-200 278,-200 278,-200 272,-200 266,-194 266,-188 266,-188 266,-164 266,-164 266,-158 272,-152 278,-152 278,-152 429,-152 429,-152 435,-152 441,-158 441,-164 441,-164 441,-188 441,-188 441,-194 435,-200 429,-200"/>
<text text-anchor="middle" x="353.5" y="-185.6" font-family="Helvetica,sans-Serif" font-size="10.50" fill="#000000">(b) Output policy</text>
<text text-anchor="middle" x="353.5" y="-173.6" font-family="Helvetica,sans-Serif" font-size="10.50" fill="#000000">selected/weighted experts</text>
<text text-anchor="middle" x="353.5" y="-161.6" font-family="Helvetica,sans-Serif" font-size="10.50" fill="#000000">(+ optional ASHA refinement)</text>
</g>
<!-- b1&#45;&gt;b2 -->
<g id="edge2" class="edge">
<title>b1&#45;&gt;b2</title>
<path fill="none" stroke="#4a4a4a" stroke-width="1.2" d="M353.5,-239.9536C353.5,-229.7679 353.5,-217.7721 353.5,-206.9383"/>
<polygon fill="#4a4a4a" stroke="#4a4a4a" stroke-width="1.2" points="355.8801,-206.8173 353.5,-200.0173 351.1201,-206.8173 355.8801,-206.8173"/>
</g>
<!-- shared -->
<g id="node5" class="node">
<title>shared</title>
<path fill="#eaf2ff" stroke="#6c8ebf" d="M379.5,-36C379.5,-36 69.5,-36 69.5,-36 63.5,-36 57.5,-30 57.5,-24 57.5,-24 57.5,-12 57.5,-12 57.5,-6 63.5,0 69.5,0 69.5,0 379.5,0 379.5,0 385.5,0 391.5,-6 391.5,-12 391.5,-12 391.5,-24 391.5,-24 391.5,-30 385.5,-36 379.5,-36"/>
<text text-anchor="middle" x="224.5" y="-21.6" font-family="Helvetica,sans-Serif" font-size="10.50" fill="#000000">Shared temporal constraints and evaluation</text>
<text text-anchor="middle" x="224.5" y="-9.6" font-family="Helvetica,sans-Serif" font-size="10.50" fill="#000000">strict split + leakage guards + MAE/RMSE/sMAPE/MAPE + CI</text>
</g>
<!-- a2&#45;&gt;shared -->
<g id="edge3" class="edge">
<title>a2&#45;&gt;shared</title>
<path fill="none" stroke="#4a4a4a" stroke-width="1.2" d="M106.3693,-157.6585C115.6074,-128.7893 132.5,-76 132.5,-76 132.5,-76 163.9509,-56.1722 190.075,-39.7027"/>
<polygon fill="#4a4a4a" stroke="#4a4a4a" stroke-width="1.2" points="191.4119,-41.6734 195.8949,-36.0336 188.8734,-37.6468 191.4119,-41.6734"/>
</g>
<!-- fallback -->
<g id="node6" class="node">
<title>fallback</title>
<path fill="#fdecec" stroke="#c0392b" d="M282.5,-112C282.5,-112 166.5,-112 166.5,-112 160.5,-112 154.5,-106 154.5,-100 154.5,-100 154.5,-88 154.5,-88 154.5,-82 160.5,-76 166.5,-76 166.5,-76 282.5,-76 282.5,-76 288.5,-76 294.5,-82 294.5,-88 294.5,-88 294.5,-100 294.5,-100 294.5,-106 288.5,-112 282.5,-112"/>
<text text-anchor="middle" x="224.5" y="-97.6" font-family="Helvetica,sans-Serif" font-size="10.50" fill="#8a1f11">Contingency fallback</text>
<text text-anchor="middle" x="224.5" y="-85.6" font-family="Helvetica,sans-Serif" font-size="10.50" fill="#8a1f11">robust tabular baseline</text>
</g>
<!-- a2&#45;&gt;fallback -->
<g id="edge5" class="edge">
<title>a2&#45;&gt;fallback</title>
<path fill="none" stroke="#c0392b" stroke-width="1.2" stroke-dasharray="5,2" d="M128.0196,-157.8015C146.7223,-145.4336 171.563,-129.0068 191.3546,-115.9187"/>
<polygon fill="#c0392b" stroke="#c0392b" stroke-width="1.2" points="192.6981,-117.8837 197.0573,-112.1476 190.0725,-113.9133 192.6981,-117.8837"/>
</g>
<!-- b2&#45;&gt;shared -->
<g id="edge4" class="edge">
<title>b2&#45;&gt;shared</title>
<path fill="none" stroke="#4a4a4a" stroke-width="1.2" d="M344.5433,-151.7928C333.5931,-122.1975 316.5,-76 316.5,-76 316.5,-76 285.0491,-56.1722 258.925,-39.7027"/>
<polygon fill="#4a4a4a" stroke="#4a4a4a" stroke-width="1.2" points="260.1266,-37.6468 253.1051,-36.0336 257.5881,-41.6734 260.1266,-37.6468"/>
</g>
<!-- b2&#45;&gt;fallback -->
<g id="edge6" class="edge">
<title>b2&#45;&gt;fallback</title>
<path fill="none" stroke="#c0392b" stroke-width="1.2" stroke-dasharray="5,2" d="M315.4935,-151.8408C297.4651,-140.3809 276.0943,-126.7964 258.5952,-115.6729"/>
<polygon fill="#c0392b" stroke="#c0392b" stroke-width="1.2" points="259.8351,-113.6409 252.8196,-112.0016 257.2815,-117.6581 259.8351,-113.6409"/>
</g>
<!-- fallback&#45;&gt;shared -->
<g id="edge7" class="edge">
<title>fallback&#45;&gt;shared</title>
<path fill="none" stroke="#c0392b" stroke-width="1.2" stroke-dasharray="5,2" d="M224.5,-75.9891C224.5,-66.123 224.5,-53.7438 224.5,-42.9593"/>
<polygon fill="#c0392b" stroke="#c0392b" stroke-width="1.2" points="226.8801,-42.945 224.5,-36.145 222.1201,-42.9451 226.8801,-42.945"/>
</g>
</g>
</svg>
