<?xml version="1.0" encoding="UTF-8" standalone="no"?>
<!DOCTYPE svg PUBLIC "-//W3C//DTD SVG 1.1//EN"
 "http://www.w3.org/Graphics/SVG/1.1/DTD/svg11.dtd">
<!-- Generated by graphviz version 2.40.1 (0)
 -->
<!-- Title: AutoFitOverview Pages: 1 -->
<svg width="351pt" height="370pt"
 viewBox="0.00 0.00 351.14 369.64" xmlns="http://www.w3.org/2000/svg" xmlns:xlink="http://www.w3.org/1999/xlink">
<g id="graph0" class="graph" transform="scale(1 1) rotate(0) translate(4.32 365.32)">
<title>AutoFitOverview</title>
<polygon fill="#ffffff" stroke="transparent" points="-4.32,4.32 -4.32,-365.32 346.82,-365.32 346.82,4.32 -4.32,4.32"/>
<text text-anchor="middle" x="171.25" y="-347.4" font-family="Helvetica,sans-Serif" font-size="12.00" fill="#000000">AutoFit Overview</text>
<!-- n1 -->
<g id="node1" class="node">
<title>n1</title>
<path fill="#ecf1ff" stroke="#8aa4ff" d="M315,-340C315,-340 50,-340 50,-340 44,-340 38,-334 38,-328 38,-328 38,-316 38,-316 38,-310 44,-304 50,-304 50,-304 315,-304 315,-304 321,-304 327,-310 327,-316 327,-316 327,-328 327,-328 327,-334 321,-340 315,-340"/>
<text text-anchor="middle" x="182.5" y="-325.6" font-family="Helvetica,sans-Serif" font-size="10.50" fill="#000000">Leakage&#45;safe protocol</text>
<text text-anchor="middle" x="182.5" y="-313.6" font-family="Helvetica,sans-Serif" font-size="10.50" fill="#000000">freeze alignment + strict temporal split + embargo</text>
</g>
<!-- n2 -->
<g id="node2" class="node">
<title>n2</title>
<path fill="#f6f8fa" stroke="#2b2b2b" d="M231,-264C231,-264 134,-264 134,-264 128,-264 122,-258 122,-252 122,-252 122,-240 122,-240 122,-234 128,-228 134,-228 134,-228 231,-228 231,-228 237,-228 243,-234 243,-240 243,-240 243,-252 243,-252 243,-258 237,-264 231,-264"/>
<text text-anchor="middle" x="182.5" y="-249.6" font-family="Helvetica,sans-Serif" font-size="10.50" fill="#000000">Regime embedding</text>
<text text-anchor="middle" x="182.5" y="-237.6" font-family="Helvetica,sans-Serif" font-size="10.50" fill="#000000">m = φ(D_train)</text>
</g>
<!-- n1&#45;&gt;n2 -->
<g id="edge1" class="edge">
<title>n1&#45;&gt;n2</title>
<path fill="none" stroke="#4a4a4a" stroke-width="1.2" d="M182.5,-303.9891C182.5,-294.123 182.5,-281.7438 182.5,-270.9593"/>
<polygon fill="#4a4a4a" stroke="#4a4a4a" stroke-width="1.2" points="184.8101,-270.745 182.5,-264.145 180.1901,-270.7451 184.8101,-270.745"/>
</g>
<!-- v1 -->
<g id="node3" class="node">
<title>v1</title>
<path fill="#e9f8f6" stroke="#72b7b2" d="M167,-188C167,-188 12,-188 12,-188 6,-188 0,-182 0,-176 0,-176 0,-164 0,-164 0,-158 6,-152 12,-152 12,-152 167,-152 167,-152 173,-152 179,-158 179,-164 179,-164 179,-176 179,-176 179,-182 173,-188 167,-188"/>
<text text-anchor="middle" x="89.5" y="-173.6" font-family="Helvetica,sans-Serif" font-size="10.50" fill="#000000">AutoFit v1</text>
<text text-anchor="middle" x="89.5" y="-161.6" font-family="Helvetica,sans-Serif" font-size="10.50" fill="#000000">deterministic rule composition</text>
</g>
<!-- n2&#45;&gt;v1 -->
<g id="edge2" class="edge">
<title>n2&#45;&gt;v1</title>
<path fill="none" stroke="#4a4a4a" stroke-width="1.2" d="M160.4603,-227.9891C147.4675,-217.3713 130.9129,-203.8428 117.062,-192.5238"/>
<polygon fill="#4a4a4a" stroke="#4a4a4a" stroke-width="1.2" points="118.2761,-190.5327 111.7038,-188.145 115.3526,-194.1102 118.2761,-190.5327"/>
</g>
<!-- v2 -->
<g id="node4" class="node">
<title>v2</title>
<path fill="#fff3e6" stroke="#f29e4c" d="M326.5,-188C326.5,-188 224.5,-188 224.5,-188 218.5,-188 212.5,-182 212.5,-176 212.5,-176 212.5,-164 212.5,-164 212.5,-158 218.5,-152 224.5,-152 224.5,-152 326.5,-152 326.5,-152 332.5,-152 338.5,-158 338.5,-164 338.5,-164 338.5,-176 338.5,-176 338.5,-182 332.5,-188 326.5,-188"/>
<text text-anchor="middle" x="275.5" y="-173.6" font-family="Helvetica,sans-Serif" font-size="10.50" fill="#000000">AutoFit v2/v2E</text>
<text text-anchor="middle" x="275.5" y="-161.6" font-family="Helvetica,sans-Serif" font-size="10.50" fill="#000000">sparse expert gating</text>
</g>
<!-- n2&#45;&gt;v2 -->
<g id="edge3" class="edge">
<title>n2&#45;&gt;v2</title>
<path fill="none" stroke="#4a4a4a" stroke-width="1.2" d="M204.5397,-227.9891C217.5325,-217.3713 234.0871,-203.8428 247.938,-192.5238"/>
<polygon fill="#4a4a4a" stroke="#4a4a4a" stroke-width="1.2" points="249.6474,-194.1102 253.2962,-188.145 246.7239,-190.5327 249.6474,-194.1102"/>
</g>
<!-- n3 -->
<g id="node5" class="node">
<title>n3</title>
<path fill="#eaf2ff" stroke="#6c8ebf" d="M330.5,-36C330.5,-36 34.5,-36 34.5,-36 28.5,-36 22.5,-30 22.5,-24 22.5,-24 22.5,-12 22.5,-12 22.5,-6 28.5,0 34.5,0 34.5,0 330.5,0 330.5,0 336.5,0 342.5,-6 342.5,-12 342.5,-12 342.5,-24 342.5,-24 342.5,-30 336.5,-36 330.5,-36"/>
<text text-anchor="middle" x="182.5" y="-21.6" font-family="Helvetica,sans-Serif" font-size="10.50" fill="#000000">Execution + evaluation</text>
<text text-anchor="middle" x="182.5" y="-9.6" font-family="Helvetica,sans-Serif" font-size="10.50" fill="#000000">selected model(s), metrics, confidence intervals, artifacts</text>
</g>
<!-- v1&#45;&gt;n3 -->
<g id="edge4" class="edge">
<title>v1&#45;&gt;n3</title>
<path fill="none" stroke="#4a4a4a" stroke-width="1.2" d="M90.6569,-151.8759C92.4004,-124.5605 95.5,-76 95.5,-76 95.5,-76 125.2416,-56.1722 149.9459,-39.7027"/>
<polygon fill="#4a4a4a" stroke="#4a4a4a" stroke-width="1.2" points="151.2394,-41.6167 155.4496,-36.0336 148.6766,-37.7727 151.2394,-41.6167"/>
</g>
<!-- fb -->
<g id="node6" class="node">
<title>fb</title>
<path fill="#fdecec" stroke="#c0392b" d="M240.5,-112C240.5,-112 124.5,-112 124.5,-112 118.5,-112 112.5,-106 112.5,-100 112.5,-100 112.5,-88 112.5,-88 112.5,-82 118.5,-76 124.5,-76 124.5,-76 240.5,-76 240.5,-76 246.5,-76 252.5,-82 252.5,-88 252.5,-88 252.5,-100 252.5,-100 252.5,-106 246.5,-112 240.5,-112"/>
<text text-anchor="middle" x="182.5" y="-97.6" font-family="Helvetica,sans-Serif" font-size="10.50" fill="#8a1f11">Contingency fallback</text>
<text text-anchor="middle" x="182.5" y="-85.6" font-family="Helvetica,sans-Serif" font-size="10.50" fill="#8a1f11">robust tabular baseline</text>
</g>
<!-- v1&#45;&gt;fb -->
<g id="edge6" class="edge">
<title>v1&#45;&gt;fb</title>
<path fill="none" stroke="#c0392b" stroke-width="1.2" stroke-dasharray="5,2" d="M111.5397,-151.9891C124.5325,-141.3713 141.0871,-127.8428 154.938,-116.5238"/>
<polygon fill="#c0392b" stroke="#c0392b" stroke-width="1.2" points="156.6474,-118.1102 160.2962,-112.145 153.7239,-114.5327 156.6474,-118.1102"/>
</g>
<!-- v2&#45;&gt;n3 -->
<g id="edge5" class="edge">
<title>v2&#45;&gt;n3</title>
<path fill="none" stroke="#4a4a4a" stroke-width="1.2" d="M274.1503,-151.8759C272.1162,-124.5605 268.5,-76 268.5,-76 268.5,-76 239.3467,-56.3385 214.988,-39.9105"/>
<polygon fill="#4a4a4a" stroke="#4a4a4a" stroke-width="1.2" points="216.003,-37.8088 209.2395,-36.0336 213.4198,-41.6392 216.003,-37.8088"/>
</g>
<!-- v2&#45;&gt;fb -->
<g id="edge7" class="edge">
<title>v2&#45;&gt;fb</title>
<path fill="none" stroke="#c0392b" stroke-width="1.2" stroke-dasharray="5,2" d="M253.4603,-151.9891C240.4675,-141.3713 223.9129,-127.8428 210.062,-116.5238"/>
<polygon fill="#c0392b" stroke="#c0392b" stroke-width="1.2" points="211.2761,-114.5327 204.7038,-112.145 208.3526,-118.1102 211.2761,-114.5327"/>
</g>
<!-- fb&#45;&gt;n3 -->
<g id="edge8" class="edge">
<title>fb&#45;&gt;n3</title>
<path fill="none" stroke="#c0392b" stroke-width="1.2" stroke-dasharray="5,2" d="M182.5,-75.9891C182.5,-66.123 182.5,-53.7438 182.5,-42.9593"/>
<polygon fill="#c0392b" stroke="#c0392b" stroke-width="1.2" points="184.8101,-42.745 182.5,-36.145 180.1901,-42.7451 184.8101,-42.745"/>
</g>
</g>
</svg>
